<svg width="29" height="28" viewBox="0 0 29 28" fill="none" xmlns="http://www.w3.org/2000/svg">
<path d="M2.125 2.125H6.625L9.64 17.1888C9.74288 17.7067 10.0246 18.172 10.436 18.5031C10.8473 18.8342 11.362 19.0101 11.89 19H22.825C23.353 19.0101 23.8677 18.8342 24.279 18.5031C24.6904 18.172 24.9721 17.7067 25.075 17.1888L26.875 7.75H7.75M12.25 24.625C12.25 25.2463 11.7463 25.75 11.125 25.75C10.5037 25.75 10 25.2463 10 24.625C10 24.0037 10.5037 23.5 11.125 23.5C11.7463 23.5 12.25 24.0037 12.25 24.625ZM24.625 24.625C24.625 25.2463 24.1213 25.75 23.5 25.75C22.8787 25.75 22.375 25.2463 22.375 24.625C22.375 24.0037 22.8787 23.5 23.5 23.5C24.1213 23.5 24.625 24.0037 24.625 24.625Z" stroke="white" stroke-width="4" stroke-linecap="round" stroke-linejoin="round"/>
</svg>
