<svg width="78" height="95" viewBox="0 0 78 95" fill="none" xmlns="http://www.w3.org/2000/svg">
<mask id="mask0_73_39" style="mask-type:alpha" maskUnits="userSpaceOnUse" x="1" y="48" width="76" height="47">
<rect x="1.63861" y="48.351" width="74.9657" height="46.0854" rx="5" fill="#DEA351"/>
</mask>
<g mask="url(#mask0_73_39)">
<rect x="1.63861" y="48.351" width="74.9657" height="46.0854" rx="0.1" fill="#DEA351"/>
<mask id="mask1_73_39" style="mask-type:alpha" maskUnits="userSpaceOnUse" x="7" y="52" width="64" height="31">
<rect x="7.57849" y="52.2426" width="63.2907" height="30.7236" rx="15.3618" fill="#28272B"/>
</mask>
<g mask="url(#mask1_73_39)">
<rect x="7.57849" y="52.2426" width="63.2907" height="30.7236" rx="15.3618" fill="#28272B"/>
<rect x="5.53027" y="51.2185" width="67.7968" height="10.0364" fill="#DACCB9"/>
<path d="M27.8561 71.3937C27.8561 75.6357 24.4172 79.0746 20.1752 79.0746C15.9331 79.0746 12.4943 75.6357 12.4943 71.3937C12.4943 67.1516 15.9331 63.7128 20.1752 63.7128C24.4172 63.7128 27.8561 67.1516 27.8561 71.3937Z" fill="#D9D9D9"/>
<path d="M65.7486 71.3937C65.7486 75.6357 62.3097 79.0746 58.0676 79.0746C53.8256 79.0746 50.3867 75.6357 50.3867 71.3937C50.3867 67.1516 53.8256 63.7128 58.0676 63.7128C62.3097 63.7128 65.7486 67.1516 65.7486 71.3937Z" fill="#D9D9D9"/>
</g>
<path d="M9.83154 97.2015L19.9703 84.8096H58.0676L68.6161 97.2015" stroke="#28272B" stroke-width="3"/>
<path d="M22.9403 87.882C22.9403 88.6739 22.2984 89.3158 21.5065 89.3158C20.7147 89.3158 20.0728 88.6739 20.0728 87.882C20.0728 87.0902 20.7147 86.4482 21.5065 86.4482C22.2984 86.4482 22.9403 87.0902 22.9403 87.882Z" fill="#28272B"/>
<path d="M57.9652 87.882C57.9652 88.6739 57.3233 89.3158 56.5315 89.3158C55.7396 89.3158 55.0977 88.6739 55.0977 87.882C55.0977 87.0902 55.7396 86.4482 56.5315 86.4482C57.3233 86.4482 57.9652 87.0902 57.9652 87.882Z" fill="#28272B"/>
</g>
<mask id="mask2_73_39" style="mask-type:alpha" maskUnits="userSpaceOnUse" x="37" y="20" width="41" height="25">
<path d="M66.4825 25.1252C50.3013 34.0298 38.5078 16.7881 38.336 21.4989C38.1641 26.2098 46.785 45.9134 62.4246 43.6886C78.0642 41.4638 82.6638 16.2207 66.4825 25.1252Z" fill="#EE454A" stroke="#EE454A"/>
</mask>
<g mask="url(#mask2_73_39)">
<path d="M66.4825 25.1252C50.3013 34.0298 38.5078 16.7881 38.336 21.4989C38.1641 26.2098 46.785 45.9134 62.4246 43.6886C78.0642 41.4638 82.6638 16.2207 66.4825 25.1252Z" fill="#EE454A" stroke="#EE454A"/>
<path d="M49.3871 41.7891C52.2123 36.6891 52.9474 33.4138 51.0276 25.9887C49.1078 18.5635 54.1358 26.9384 54.1358 26.9384C55.6066 34.5897 54.9605 37.9025 52.0637 42.6525L49.3871 41.7891Z" fill="#B12625"/>
<path d="M43.5159 38.3841C46.3411 33.2841 47.0762 30.0088 45.1564 22.5837C43.2366 15.1586 48.2647 23.5335 48.2647 23.5335C49.7354 31.1848 49.0893 34.4976 46.1925 39.2475L43.5159 38.3841Z" fill="#B12625"/>
<path d="M37.6447 35.1032C40.4699 30.0032 41.205 26.7279 39.2852 19.3027C37.3654 11.8776 42.3935 20.2525 42.3935 20.2525C43.8642 27.9038 43.2181 31.2166 40.3213 35.9666L37.6447 35.1032Z" fill="#B12625"/>
<path d="M55.2583 44.8984C58.0918 38.7846 58.829 34.8582 56.9036 25.957C54.9781 17.0559 60.021 27.0956 60.021 27.0956C61.4961 36.2679 60.8481 40.2392 57.9427 45.9334L55.2583 44.8984Z" fill="#B12625"/>
<path d="M63.0586 44.3517C64.7799 37.8368 64.8195 33.842 61.3678 25.4144C57.9162 16.9868 64.6363 25.9905 64.6363 25.9905C67.6919 34.7638 67.748 38.7873 65.8827 44.9016L63.0586 44.3517Z" fill="#B12625"/>
<path d="M70.345 40.462C71.049 33.7604 70.4769 29.8066 65.7763 22.0064C61.0757 14.2062 69.0944 22.0756 69.0944 22.0756C73.4565 30.278 74.1276 34.2455 73.2199 40.5733L70.345 40.462Z" fill="#B12625"/>
<path d="M49.3871 41.7891C52.2123 36.6891 52.9474 33.4138 51.0276 25.9887C49.1078 18.5635 54.1358 26.9384 54.1358 26.9384C55.6066 34.5897 54.9605 37.9025 52.0637 42.6525L49.3871 41.7891Z" stroke="#B12625"/>
<path d="M43.5159 38.3841C46.3411 33.2841 47.0762 30.0088 45.1564 22.5837C43.2366 15.1586 48.2647 23.5335 48.2647 23.5335C49.7354 31.1848 49.0893 34.4976 46.1925 39.2475L43.5159 38.3841Z" stroke="#B12625"/>
<path d="M37.6447 35.1032C40.4699 30.0032 41.205 26.7279 39.2852 19.3027C37.3654 11.8776 42.3935 20.2525 42.3935 20.2525C43.8642 27.9038 43.2181 31.2166 40.3213 35.9666L37.6447 35.1032Z" stroke="#B12625"/>
<path d="M55.2583 44.8984C58.0918 38.7846 58.829 34.8582 56.9036 25.957C54.9781 17.0559 60.021 27.0956 60.021 27.0956C61.4961 36.2679 60.8481 40.2392 57.9427 45.9334L55.2583 44.8984Z" stroke="#B12625"/>
<path d="M63.0586 44.3517C64.7799 37.8368 64.8195 33.842 61.3678 25.4144C57.9162 16.9868 64.6363 25.9905 64.6363 25.9905C67.6919 34.7638 67.748 38.7873 65.8827 44.9016L63.0586 44.3517Z" stroke="#B12625"/>
<path d="M70.345 40.462C71.049 33.7604 70.4769 29.8066 65.7763 22.0064C61.0757 14.2062 69.0944 22.0756 69.0944 22.0756C73.4565 30.278 74.1276 34.2455 73.2199 40.5733L70.345 40.462Z" stroke="#B12625"/>
</g>
<mask id="mask3_73_39" style="mask-type:alpha" maskUnits="userSpaceOnUse" x="9" y="17" width="41" height="32">
<path d="M10.7927 21.7579C9.31825 32.6773 9.30882 41.1128 13.0375 48.351H17.1818C17.1818 48.351 15.8867 40.1486 18.3043 38.5944C20.7218 37.0403 21.4989 48.351 21.4989 48.351H25.9886C26.9248 48.0759 27.4532 46.287 28.4062 38.5944C30.8237 37.5584 36.0906 37.6447 38.5081 38.5944C40.9256 39.5442 41.271 48.351 41.271 48.351H46.8832C46.8832 48.351 50.5958 48.351 48.4373 36.7813C46.2788 25.2116 43.3432 20.7219 34.8818 18.8223C26.4203 16.9228 12.9512 17.9589 10.7927 21.7579Z" fill="#EE454A" stroke="#EE454A"/>
</mask>
<g mask="url(#mask3_73_39)">
<path d="M11.8287 23.9165C10.3543 34.8359 9.30881 41.1128 13.0375 48.351H17.1818C17.1818 48.351 15.8867 40.1486 18.3043 38.5945C20.7218 37.0403 21.4989 48.351 21.4989 48.351H25.9886C26.9248 48.0759 27.4532 46.2871 28.4062 38.5945C30.8237 37.5584 36.0905 37.6447 38.5081 38.5945C40.9256 39.5442 41.271 48.351 41.271 48.351H46.8832C46.8832 48.351 50.5958 48.351 48.4373 36.7813C46.2788 25.2116 43.3432 20.7219 34.8817 18.8224C26.4203 16.9229 13.9873 20.1175 11.8287 23.9165Z" fill="#EE454A" stroke="#EE454A"/>
<path d="M20.7297 21.3017C26.2671 17.4535 20.87 30.836 25.7134 30.4298C30.5567 30.0237 43.5159 31.8109 45.9247 40.9899C47.6676 44.0587 48.5664 44.992 50.0778 45.733L46.4785 53.8768L6.79405 51.729L5.87115 17.0955C5.87115 17.0955 15.1924 25.1498 20.7297 21.3017Z" fill="#27262A" stroke="#27262A"/>
</g>
<path d="M27.9745 0.0864022C24.7628 0.693174 22.7498 3.79039 22.017 3.36736C21.2841 2.94433 28.4926 14.0737 28.4926 14.0737C28.5397 14.0873 28.4993 14.0138 28.5438 14.0258C28.9261 14.015 28.7119 12.7199 31.3418 11.2244C31.5333 11.1155 31.6987 10.9695 31.8398 10.792C32.0715 10.3525 32.2521 9.92045 32.3691 9.58385C33.1093 6.23441 30.5969 -0.409044 27.9745 0.0864022Z" fill="#DACCB9"/>
<path d="M31.3418 11.2244C28.7119 12.7199 28.9261 14.015 28.5438 14.0258C30.5203 14.5577 29.9189 13.4258 29.3559 12.7785C30.3335 12.8762 31.2792 11.8556 31.8398 10.792C31.6987 10.9695 31.5333 11.1155 31.3418 11.2244Z" fill="#DACCB9"/>
<path d="M24.7799 5.87116C25.2823 6.37977 26.369 3.57777 27.8018 2.93556C29.2347 2.29336 31.7764 9.83346 27.8018 11.3106C27.8018 11.3106 24.2775 5.36255 24.7799 5.87116Z" fill="#27262A"/>
<path d="M4.52599 0.0262417C7.73766 0.633014 9.75066 3.73023 10.4835 3.3072C11.2164 2.88417 4.00794 14.0135 4.00794 14.0135C3.96075 14.0272 4.00124 13.9537 3.9567 13.9657C3.57437 13.9548 3.78863 12.6598 1.15869 11.1642C0.967197 11.0553 0.801754 10.9093 0.660684 10.7318C0.429024 10.2923 0.248353 9.86029 0.131401 9.52369C-0.608812 6.17425 1.90357 -0.469204 4.52599 0.0262417Z" fill="#DACCB9"/>
<path d="M1.15869 11.1642C3.78863 12.6598 3.57437 13.9548 3.9567 13.9657C1.98017 14.4975 2.58163 13.3657 3.14456 12.7183C2.16701 12.8161 1.22135 11.7954 0.660684 10.7318C0.801754 10.9093 0.967197 11.0553 1.15869 11.1642Z" fill="#DACCB9"/>
<path d="M7.72059 5.811C7.2182 6.31961 6.13147 3.51761 4.69866 2.8754C3.26585 2.2332 0.724115 9.7733 4.69866 11.2505C4.69866 11.2505 8.22298 5.30238 7.72059 5.811Z" fill="#27262A"/>
<mask id="mask4_73_39" style="mask-type:alpha" maskUnits="userSpaceOnUse" x="1" y="1" width="31" height="24">
<path d="M27.2838 9.49753C27.8018 12.3468 29.7877 14.5053 30.9964 15.3687C32.2052 16.2321 23.8301 24.2618 17.1819 24.5209L27.2838 9.49753Z" fill="#EE454A"/>
<path d="M5.21148 9.49753C4.69344 12.3468 2.70759 14.5053 1.49882 15.3687C0.290048 16.2321 8.66513 24.2618 15.3134 24.5209L5.21148 9.49753Z" fill="#EE454A"/>
<path d="M27.9745 13.0375C27.9745 19.475 22.7173 24.6935 16.2321 24.6935C9.74699 24.6935 4.48975 19.475 4.48975 13.0375C4.48975 6.60006 9.74699 1.38147 16.2321 1.38147C22.7173 1.38147 27.9745 6.60006 27.9745 13.0375Z" fill="#EE454A"/>
</mask>
<g mask="url(#mask4_73_39)">
<path d="M27.2838 9.49753C27.8018 12.3468 29.7877 14.5053 30.9964 15.3687C32.2052 16.2321 23.8301 24.2618 17.1819 24.5209L27.2838 9.49753Z" fill="#EE454A"/>
<path d="M5.21148 9.49753C4.69344 12.3468 2.70759 14.5053 1.49882 15.3687C0.290048 16.2321 8.66513 24.2618 15.3134 24.5209L5.21148 9.49753Z" fill="#EE454A"/>
<path d="M27.9745 13.0375C27.9745 19.475 22.7173 24.6935 16.2321 24.6935C9.74699 24.6935 4.48975 19.475 4.48975 13.0375C4.48975 6.60006 9.74699 1.38147 16.2321 1.38147C22.7173 1.38147 27.9745 6.60006 27.9745 13.0375Z" fill="#EE454A"/>
<path d="M24.2618 16.9229C29.0106 22.7077 23.0975 22.0484 20.4629 25.557C20.9518 21.8975 21.4981 20.3501 20.4628 16.4048C20.4628 16.4048 19.5131 11.138 24.2618 16.9229Z" fill="#B12625"/>
<path d="M8.52369 16.8726C3.77495 22.6574 9.68805 21.9981 12.3227 25.5067C11.8337 21.8472 11.2875 20.2998 12.3227 16.3545C12.3227 16.3545 13.2724 11.0877 8.52369 16.8726Z" fill="#B12625"/>
<path d="M24.2618 16.9229C29.0106 22.7077 23.0975 22.0484 20.4629 25.557C20.9518 21.8975 21.4981 20.3501 20.4628 16.4048C20.4628 16.4048 19.5131 11.138 24.2618 16.9229Z" stroke="#B12625"/>
<path d="M8.52369 16.8726C3.77495 22.6574 9.68805 21.9981 12.3227 25.5067C11.8337 21.8472 11.2875 20.2998 12.3227 16.3545C12.3227 16.3545 13.2724 11.0877 8.52369 16.8726Z" stroke="#B12625"/>
<path d="M10.7926 23.7438C10.5506 20.908 12.3543 19.5342 16.4911 16.9229C21.0675 19.6912 22.649 20.4249 22.1896 23.7438C21.7302 27.0627 11.0345 26.5796 10.7926 23.7438Z" fill="#DACCB9"/>
<path d="M9.06582 22.7077C8.23734 21.149 7.85704 18.995 7.85704 18.3043C7.85704 17.6136 8.09584 16.8618 9.06582 15.3687C8.79541 12.8158 8.06581 12.5823 4.66242 15.9731C3.50236 18.0802 3.66995 19.1787 4.66242 21.0672C4.66242 21.0672 9.89429 24.2664 9.06582 22.7077Z" fill="#DACCB9"/>
<path d="M9.75656 12.4331C10.432 11.8829 13.9873 13.3829 14.2463 12.8649C14.5053 12.3468 13.9932 10.8438 12.3468 10.5336C10.7004 10.2235 9.08112 12.9833 9.75656 12.4331Z" fill="#DACCB9"/>
<path d="M23.9063 22.5594C24.7348 21.0007 25.1151 18.8467 25.1151 18.156C25.1151 17.4653 24.8763 16.7135 23.9063 15.2204C24.1768 12.6675 24.9063 12.434 28.3097 15.8248C29.4698 17.9319 29.3022 19.0304 28.3097 20.9189C28.3097 20.9189 23.0779 24.1181 23.9063 22.5594Z" fill="#DACCB9"/>
<path d="M23.2156 12.2849C22.5402 11.7346 18.9849 13.2346 18.7259 12.7166C18.4668 12.1985 18.979 10.6955 20.6254 10.3854C22.2717 10.0752 23.891 12.8351 23.2156 12.2849Z" fill="#DACCB9"/>
<path d="M10.7926 23.7438C10.5506 20.908 12.3543 19.5342 16.4911 16.9229C21.0675 19.6912 22.649 20.4249 22.1896 23.7438C21.7302 27.0627 11.0345 26.5796 10.7926 23.7438Z" stroke="#DACCB9"/>
<path d="M9.06582 22.7077C8.23734 21.149 7.85704 18.995 7.85704 18.3043C7.85704 17.6136 8.09584 16.8618 9.06582 15.3687C8.79541 12.8158 8.06581 12.5823 4.66242 15.9731C3.50236 18.0802 3.66995 19.1787 4.66242 21.0672C4.66242 21.0672 9.89429 24.2664 9.06582 22.7077Z" stroke="#DACCB9"/>
<path d="M9.75656 12.4331C10.432 11.8829 13.9873 13.3829 14.2463 12.8649C14.5053 12.3468 13.9932 10.8438 12.3468 10.5336C10.7004 10.2235 9.08112 12.9833 9.75656 12.4331Z" stroke="#DACCB9"/>
<path d="M23.9063 22.5594C24.7348 21.0007 25.1151 18.8467 25.1151 18.156C25.1151 17.4653 24.8763 16.7135 23.9063 15.2204C24.1768 12.6675 24.9063 12.434 28.3097 15.8248C29.4698 17.9319 29.3022 19.0304 28.3097 20.9189C28.3097 20.9189 23.0779 24.1181 23.9063 22.5594Z" stroke="#DACCB9"/>
<path d="M23.2156 12.2849C22.5402 11.7346 18.9849 13.2346 18.7259 12.7166C18.4668 12.1985 18.979 10.6955 20.6254 10.3854C22.2717 10.0752 23.891 12.8351 23.2156 12.2849Z" stroke="#DACCB9"/>
<path d="M18.995 16.1005C19.5591 13.4663 21.6476 13.8407 22.6213 14.3573C22.299 17.2239 20.0695 16.7139 18.995 16.1005Z" fill="#27262A"/>
<path d="M15.5414 18.9087C16.1458 18.477 16.7502 18.477 17.3545 18.9087C17.9589 19.3404 17.0091 20.8945 16.4911 20.8945C15.9731 20.8945 14.937 19.3404 15.5414 18.9087Z" fill="#27262A"/>
<path d="M13.9872 16.1005C13.4231 13.4663 11.3346 13.8407 10.3609 14.3573C10.6832 17.2239 12.9128 16.7139 13.9872 16.1005Z" fill="#27262A"/>
<path d="M18.995 16.1005C19.5591 13.4663 21.6476 13.8407 22.6213 14.3573C22.299 17.2239 20.0695 16.7139 18.995 16.1005Z" stroke="#27262A"/>
<path d="M15.5414 18.9087C16.1458 18.477 16.7502 18.477 17.3545 18.9087C17.9589 19.3404 17.0091 20.8945 16.4911 20.8945C15.9731 20.8945 14.937 19.3404 15.5414 18.9087Z" stroke="#27262A"/>
<path d="M13.9872 16.1005C13.4231 13.4663 11.3346 13.8407 10.3609 14.3573C10.6832 17.2239 12.9128 16.7139 13.9872 16.1005Z" stroke="#27262A"/>
</g>
</svg>
