<svg width="246" height="479" viewBox="0 0 246 479" fill="none" xmlns="http://www.w3.org/2000/svg">
<mask id="mask0_73_11" style="mask-type:alpha" maskUnits="userSpaceOnUse" x="5" y="331" width="240" height="148">
<rect x="5.24011" y="331.623" width="239.734" height="147.378" rx="20" fill="#DEA351"/>
</mask>
<g mask="url(#mask0_73_11)">
<rect x="5.24011" y="331.623" width="239.734" height="147.378" rx="20" fill="#DEA351"/>
<mask id="mask1_73_11" style="mask-type:alpha" maskUnits="userSpaceOnUse" x="24" y="344" width="203" height="99">
<rect x="24.2354" y="344.068" width="202.398" height="98.2517" rx="20" fill="#28272B"/>
</mask>
<g mask="url(#mask1_73_11)">
<rect x="24.2354" y="344.068" width="202.398" height="98.2517" rx="20" fill="#28272B"/>
<rect x="17.6853" y="340.793" width="216.809" height="32.0955" fill="#DACCB9"/>
<path d="M89.0815 405.311C89.0815 418.877 78.0843 429.874 64.5186 429.874C50.9529 429.874 39.9557 418.877 39.9557 405.311C39.9557 391.746 50.9529 380.748 64.5186 380.748C78.0843 380.748 89.0815 391.746 89.0815 405.311Z" fill="#D9D9D9"/>
<path d="M210.259 405.311C210.259 418.877 199.261 429.874 185.696 429.874C172.13 429.874 161.133 418.877 161.133 405.311C161.133 391.746 172.13 380.748 185.696 380.748C199.261 380.748 210.259 391.746 210.259 405.311Z" fill="#D9D9D9"/>
</g>
<path d="M31.4406 487.843L63.8636 448.215H185.696L219.429 487.843" stroke="#28272B" stroke-width="3"/>
<path d="M73.3612 458.04C73.3612 460.572 71.3084 462.625 68.7761 462.625C66.2438 462.625 64.191 460.572 64.191 458.04C64.191 455.507 66.2438 453.455 68.7761 453.455C71.3084 453.455 73.3612 455.507 73.3612 458.04Z" fill="#28272B"/>
<path d="M185.368 458.04C185.368 460.572 183.315 462.625 180.783 462.625C178.251 462.625 176.198 460.572 176.198 458.04C176.198 455.507 178.251 453.455 180.783 453.455C183.315 453.455 185.368 455.507 185.368 458.04Z" fill="#28272B"/>
</g>
<mask id="mask2_73_11" style="mask-type:alpha" maskUnits="userSpaceOnUse" x="122" y="242" width="124" height="76">
<path d="M212.606 257.349C160.859 285.825 123.145 230.687 122.595 245.752C122.046 260.817 149.614 323.827 199.629 316.713C249.643 309.598 264.352 228.873 212.606 257.349Z" fill="#EE454A" stroke="#EE454A"/>
</mask>
<g mask="url(#mask2_73_11)">
<path d="M212.606 257.349C160.859 285.825 123.145 230.687 122.595 245.752C122.046 260.817 149.614 323.827 199.629 316.713C249.643 309.598 264.352 228.873 212.606 257.349Z" fill="#EE454A" stroke="#EE454A"/>
<path d="M157.936 310.638C166.971 294.329 169.321 283.855 163.182 260.11C157.043 236.365 173.122 263.147 173.122 263.147C177.825 287.615 175.759 298.209 166.495 313.399L157.936 310.638Z" fill="#B12625"/>
<path d="M139.16 299.749C148.195 283.44 150.546 272.966 144.406 249.221C138.267 225.476 154.346 252.258 154.346 252.258C159.05 276.726 156.984 287.32 147.72 302.51L139.16 299.749Z" fill="#B12625"/>
<path d="M120.385 289.257C129.419 272.948 131.77 262.474 125.631 238.729C119.491 214.984 135.571 241.766 135.571 241.766C140.274 266.234 138.208 276.828 128.944 292.018L120.385 289.257Z" fill="#B12625"/>
<path d="M176.711 320.581C185.773 301.03 188.13 288.474 181.973 260.009C175.816 231.543 191.942 263.65 191.942 263.65C196.659 292.982 194.587 305.682 185.296 323.891L176.711 320.581Z" fill="#B12625"/>
<path d="M201.656 318.833C207.161 297.999 207.287 285.224 196.249 258.273C185.211 231.322 206.701 260.116 206.701 260.116C216.473 288.172 216.653 301.039 210.687 320.592L201.656 318.833Z" fill="#B12625"/>
<path d="M224.957 306.394C227.209 284.963 225.379 272.319 210.347 247.375C195.315 222.43 220.958 247.596 220.958 247.596C234.908 273.827 237.054 286.514 234.151 306.75L224.957 306.394Z" fill="#B12625"/>
<path d="M157.936 310.638C166.971 294.329 169.321 283.855 163.182 260.11C157.043 236.365 173.122 263.147 173.122 263.147C177.825 287.615 175.759 298.209 166.495 313.399L157.936 310.638Z" stroke="#B12625"/>
<path d="M139.16 299.749C148.195 283.44 150.546 272.966 144.406 249.221C138.267 225.476 154.346 252.258 154.346 252.258C159.05 276.726 156.984 287.32 147.72 302.51L139.16 299.749Z" stroke="#B12625"/>
<path d="M120.385 289.257C129.419 272.948 131.77 262.474 125.631 238.729C119.491 214.984 135.571 241.766 135.571 241.766C140.274 266.234 138.208 276.828 128.944 292.018L120.385 289.257Z" stroke="#B12625"/>
<path d="M176.711 320.581C185.773 301.03 188.13 288.474 181.973 260.009C175.816 231.543 191.942 263.65 191.942 263.65C196.659 292.982 194.587 305.682 185.296 323.891L176.711 320.581Z" stroke="#B12625"/>
<path d="M201.656 318.833C207.161 297.999 207.287 285.224 196.249 258.273C185.211 231.322 206.701 260.116 206.701 260.116C216.473 288.172 216.653 301.039 210.687 320.592L201.656 318.833Z" stroke="#B12625"/>
<path d="M224.957 306.394C227.209 284.963 225.379 272.319 210.347 247.375C195.315 222.43 220.958 247.596 220.958 247.596C234.908 273.827 237.054 286.514 234.151 306.75L224.957 306.394Z" stroke="#B12625"/>
</g>
<mask id="mask3_73_11" style="mask-type:alpha" maskUnits="userSpaceOnUse" x="31" y="233" width="127" height="100">
<path d="M34.5139 246.58C29.7989 281.499 29.7687 308.475 41.6926 331.622H54.946C54.946 331.622 50.8043 305.392 58.5355 300.422C66.2667 295.452 68.7516 331.622 68.7516 331.622H83.1094C86.1031 330.743 87.7929 325.022 90.8405 300.422C98.5716 297.109 115.415 297.385 123.146 300.422C130.877 303.459 131.981 331.622 131.981 331.622H149.928C149.928 331.622 161.801 331.622 154.898 294.624C147.996 257.625 138.608 243.267 111.549 237.192C84.4898 231.118 41.4169 234.431 34.5139 246.58Z" fill="#EE454A" stroke="#EE454A"/>
</mask>
<g mask="url(#mask3_73_11)">
<path d="M37.8271 253.483C33.112 288.402 29.7687 308.475 41.6926 331.622H54.946C54.946 331.622 50.8042 305.392 58.5354 300.422C66.2666 295.452 68.7516 331.622 68.7516 331.622H83.1094C86.103 330.743 87.7929 325.022 90.8405 300.422C98.5716 297.109 115.415 297.385 123.146 300.422C130.877 303.459 131.981 331.622 131.981 331.622H149.928C149.928 331.622 161.801 331.622 154.898 294.624C147.996 257.625 138.608 243.267 111.549 237.192C84.4898 231.118 44.73 241.334 37.8271 253.483Z" fill="#EE454A" stroke="#EE454A"/>
<path d="M66.2921 245.121C84.0001 232.815 66.7407 275.611 82.2293 274.312C97.7179 273.013 139.16 278.729 146.864 308.082C152.437 317.896 155.312 320.881 160.145 323.25L148.634 349.294L21.7269 342.425L18.7755 231.67C18.7755 231.67 48.584 257.427 66.2921 245.121Z" fill="#27262A" stroke="#27262A"/>
</g>
<path d="M89.4602 177.276C79.1896 179.217 72.7522 189.121 70.4085 187.769C68.0649 186.416 91.1169 222.006 91.1169 222.006C91.2678 222.05 91.1383 221.815 91.2808 221.853C92.5034 221.819 91.8182 217.677 100.229 212.895C100.841 212.546 101.37 212.08 101.821 211.512C102.562 210.106 103.14 208.725 103.514 207.648C105.881 196.937 97.8465 175.692 89.4602 177.276Z" fill="#DACCB9"/>
<path d="M100.229 212.895C91.8182 217.677 92.5034 221.819 91.2808 221.853C97.6015 223.554 95.6781 219.935 93.8779 217.865C97.004 218.177 100.028 214.913 101.821 211.512C101.37 212.08 100.841 212.546 100.229 212.895Z" fill="#DACCB9"/>
<path d="M79.2441 195.775C80.8508 197.402 84.326 188.441 88.9081 186.388C93.4901 184.334 101.618 208.447 88.9081 213.171C88.9081 213.171 77.6375 194.149 79.2441 195.775Z" fill="#27262A"/>
<path d="M14.4738 177.084C24.7444 179.024 31.1818 188.929 33.5254 187.576C35.8691 186.223 12.8171 221.814 12.8171 221.814C12.6662 221.858 12.7957 221.623 12.6532 221.661C11.4305 221.626 12.1157 217.485 3.7054 212.702C3.09302 212.354 2.56394 211.887 2.11281 211.319C1.37198 209.914 0.794212 208.532 0.420209 207.456C-1.94693 196.745 6.08748 175.5 14.4738 177.084Z" fill="#DACCB9"/>
<path d="M3.7054 212.702C12.1157 217.485 11.4305 221.626 12.6532 221.661C6.33243 223.362 8.25586 219.742 10.056 217.672C6.92993 217.985 3.90577 214.721 2.11281 211.319C2.56394 211.887 3.09302 212.354 3.7054 212.702Z" fill="#DACCB9"/>
<path d="M24.6898 195.583C23.0832 197.21 19.6079 188.249 15.0259 186.195C10.4439 184.142 2.31566 208.254 15.0259 212.978C15.0259 212.978 26.2964 193.957 24.6898 195.583Z" fill="#27262A"/>
<mask id="mask4_73_11" style="mask-type:alpha" maskUnits="userSpaceOnUse" x="4" y="181" width="96" height="75">
<path d="M87.2513 207.372C88.908 216.484 95.2586 223.387 99.1241 226.148C102.99 228.909 76.2069 254.587 54.9463 255.416L87.2513 207.372Z" fill="#EE454A"/>
<path d="M16.6659 207.372C15.0093 216.484 8.65868 223.387 4.79313 226.148C0.927569 228.909 27.7104 254.587 48.971 255.416L16.6659 207.372Z" fill="#EE454A"/>
<path d="M89.4602 218.693C89.4602 239.279 72.648 255.968 51.909 255.968C31.1701 255.968 14.3579 239.279 14.3579 218.693C14.3579 198.106 31.1701 181.418 51.909 181.418C72.648 181.418 89.4602 198.106 89.4602 218.693Z" fill="#EE454A"/>
</mask>
<g mask="url(#mask4_73_11)">
<path d="M87.2513 207.372C88.908 216.484 95.2586 223.387 99.1241 226.148C102.99 228.909 76.2069 254.587 54.9463 255.416L87.2513 207.372Z" fill="#EE454A"/>
<path d="M16.6659 207.372C15.0093 216.484 8.65868 223.387 4.79313 226.148C0.927569 228.909 27.7104 254.587 48.971 255.416L16.6659 207.372Z" fill="#EE454A"/>
<path d="M89.4602 218.693C89.4602 239.279 72.648 255.968 51.909 255.968C31.1701 255.968 14.3579 239.279 14.3579 218.693C14.3579 198.106 31.1701 181.418 51.909 181.418C72.648 181.418 89.4602 198.106 89.4602 218.693Z" fill="#EE454A"/>
<path d="M77.5876 231.118C92.7737 249.617 73.8641 247.509 65.4388 258.729C67.0023 247.026 68.7493 242.078 65.4387 229.461C65.4387 229.461 62.4015 212.618 77.5876 231.118Z" fill="#B12625"/>
<path d="M27.2582 230.957C12.0721 249.456 30.9818 247.348 39.407 258.568C37.8435 246.865 36.0965 241.917 39.4072 229.3C39.4072 229.3 42.4443 212.457 27.2582 230.957Z" fill="#B12625"/>
<path d="M77.5876 231.118C92.7737 249.617 73.8641 247.509 65.4388 258.729C67.0023 247.026 68.7493 242.078 65.4387 229.461C65.4387 229.461 62.4015 212.618 77.5876 231.118Z" stroke="#B12625"/>
<path d="M27.2582 230.957C12.0721 249.456 30.9818 247.348 39.407 258.568C37.8435 246.865 36.0965 241.917 39.4072 229.3C39.4072 229.3 42.4443 212.457 27.2582 230.957Z" stroke="#B12625"/>
<path d="M34.5137 252.931C33.74 243.862 39.508 239.469 52.7371 231.118C67.372 239.971 72.4296 242.317 70.9604 252.931C69.4913 263.544 35.2874 261.999 34.5137 252.931Z" fill="#DACCB9"/>
<path d="M28.9917 249.617C26.3423 244.633 25.1261 237.744 25.1261 235.536C25.1261 233.327 25.8898 230.922 28.9917 226.148C28.1269 217.984 25.7937 217.237 14.91 228.081C11.2002 234.819 11.7361 238.332 14.91 244.371C14.91 244.371 31.641 254.602 28.9917 249.617Z" fill="#DACCB9"/>
<path d="M31.2006 216.76C33.3606 215.001 44.7301 219.797 45.5584 218.141C46.3867 216.484 44.7489 211.678 39.4839 210.686C34.219 209.694 29.0406 218.52 31.2006 216.76Z" fill="#DACCB9"/>
<path d="M76.4505 249.143C79.0998 244.159 80.316 237.27 80.316 235.061C80.316 232.853 79.5523 230.448 76.4505 225.674C77.3152 217.51 79.6484 216.763 90.5321 227.606C94.2419 234.345 93.706 237.857 90.5321 243.897C90.5321 243.897 73.8011 254.128 76.4505 249.143Z" fill="#DACCB9"/>
<path d="M74.2415 216.286C72.0815 214.526 60.712 219.323 59.8837 217.666C59.0554 216.01 60.6932 211.203 65.9582 210.211C71.2231 209.22 76.4015 218.045 74.2415 216.286Z" fill="#DACCB9"/>
<path d="M34.5137 252.931C33.74 243.862 39.508 239.469 52.7371 231.118C67.372 239.971 72.4296 242.317 70.9604 252.931C69.4913 263.544 35.2874 261.999 34.5137 252.931Z" stroke="#DACCB9"/>
<path d="M28.9917 249.617C26.3423 244.633 25.1261 237.744 25.1261 235.536C25.1261 233.327 25.8898 230.922 28.9917 226.148C28.1269 217.984 25.7937 217.237 14.91 228.081C11.2002 234.819 11.7361 238.332 14.91 244.371C14.91 244.371 31.641 254.602 28.9917 249.617Z" stroke="#DACCB9"/>
<path d="M31.2006 216.76C33.3606 215.001 44.7301 219.797 45.5584 218.141C46.3867 216.484 44.7489 211.678 39.4839 210.686C34.219 209.694 29.0406 218.52 31.2006 216.76Z" stroke="#DACCB9"/>
<path d="M76.4505 249.143C79.0998 244.159 80.316 237.27 80.316 235.061C80.316 232.853 79.5523 230.448 76.4505 225.674C77.3152 217.51 79.6484 216.763 90.5321 227.606C94.2419 234.345 93.706 237.857 90.5321 243.897C90.5321 243.897 73.8011 254.128 76.4505 249.143Z" stroke="#DACCB9"/>
<path d="M74.2415 216.286C72.0815 214.526 60.712 219.323 59.8837 217.666C59.0554 216.01 60.6932 211.203 65.9582 210.211C71.2231 209.22 76.4015 218.045 74.2415 216.286Z" stroke="#DACCB9"/>
<path d="M60.7446 228.488C62.5485 220.064 69.2273 221.262 72.3413 222.913C71.3104 232.081 64.1806 230.45 60.7446 228.488Z" fill="#27262A"/>
<path d="M49.7002 237.469C51.633 236.088 53.5657 236.088 55.4985 237.469C57.4313 238.849 54.394 243.819 52.7374 243.819C51.0808 243.819 47.7674 238.849 49.7002 237.469Z" fill="#27262A"/>
<path d="M44.7301 228.488C42.9262 220.064 36.2473 221.262 33.1334 222.913C34.1642 232.081 41.2941 230.45 44.7301 228.488Z" fill="#27262A"/>
<path d="M60.7446 228.488C62.5485 220.064 69.2273 221.262 72.3413 222.913C71.3104 232.081 64.1806 230.45 60.7446 228.488Z" stroke="#27262A"/>
<path d="M49.7002 237.469C51.633 236.088 53.5657 236.088 55.4985 237.469C57.4313 238.849 54.394 243.819 52.7374 243.819C51.0808 243.819 47.7674 238.849 49.7002 237.469Z" stroke="#27262A"/>
<path d="M44.7301 228.488C42.9262 220.064 36.2473 221.262 33.1334 222.913C34.1642 232.081 41.2941 230.45 44.7301 228.488Z" stroke="#27262A"/>
</g>
<path d="M16 48.9346V0.440852H25.6586V40.6686H35.5915V48.9346H16Z" fill="#EE454A"/>
<path d="M49.8599 49.3754C46.0001 49.3754 43.0458 48.209 40.997 45.8762C38.9665 43.525 37.9513 40.1359 37.9513 35.709V12.6745C37.9513 8.52314 38.9574 5.37289 40.9696 3.22373C43.0001 1.07458 45.9635 0 49.8599 0C53.7562 0 56.7105 1.07458 58.7227 3.22373C60.7532 5.37289 61.7685 8.52314 61.7685 12.6745V35.709C61.7685 40.1359 60.7441 43.525 58.6953 45.8762C56.6648 48.209 53.7197 49.3754 49.8599 49.3754ZM49.9422 40.4482C51.4056 40.4482 52.1373 39.0246 52.1373 36.1774V12.5092C52.1373 10.1212 51.4239 8.92726 49.9971 8.92726C48.3873 8.92726 47.5824 10.1488 47.5824 12.5918V36.2325C47.5824 37.7388 47.7654 38.8225 48.1312 39.4838C48.4971 40.1267 49.1007 40.4482 49.9422 40.4482Z" fill="#EE454A"/>
<path d="M76.9149 49.3754C73.421 49.3754 70.6039 48.2825 68.4636 46.0966C66.3417 43.9107 65.2807 40.8523 65.2807 36.9214V14.5481C65.2807 9.8457 66.2045 6.24541 68.052 3.74724C69.9179 1.24908 72.9453 0 77.1344 0C79.421 0 81.4515 0.422483 83.2259 1.26745C85.0186 2.11242 86.4271 3.37987 87.4515 5.0698C88.4759 6.74136 88.9881 8.85378 88.9881 11.407V19.7832H79.3844V12.6194C79.3844 11.1683 79.2015 10.1947 78.8356 9.69875C78.4697 9.18442 77.9027 8.92726 77.1344 8.92726C76.238 8.92726 75.6344 9.2579 75.3234 9.91917C75.0124 10.5621 74.8569 11.4254 74.8569 12.5092V36.7836C74.8569 38.1245 75.049 39.0705 75.4332 39.6216C75.8356 40.1727 76.4027 40.4482 77.1344 40.4482C77.9576 40.4482 78.5338 40.1084 78.863 39.4287C79.2106 38.7491 79.3844 37.8674 79.3844 36.7836V28.0492H89.0978V37.2245C89.0978 41.486 88.0277 44.5812 85.8875 46.5099C83.7472 48.4203 80.7563 49.3754 76.9149 49.3754Z" fill="#EE454A"/>
<path d="M91.0186 48.9346L95.6832 0.440852H112.064L116.647 48.9346H107.509L106.824 41.1095H101.006L100.403 48.9346H91.0186ZM101.692 33.367H106.083L103.97 8.70683H103.531L101.692 33.367Z" fill="#EE454A"/>
<path d="M119.61 48.9346V0.440852H132.891C136.366 0.440852 138.982 1.4144 140.738 3.3615C142.494 5.29023 143.372 8.11903 143.372 11.8479V34.5518C143.372 39.144 142.568 42.6892 140.958 45.1873C139.366 47.6855 136.568 48.9346 132.561 48.9346H119.61ZM129.324 40.3655H130.997C132.772 40.3655 133.659 39.5022 133.659 37.7755V12.7572C133.659 11.1407 133.439 10.1029 133 9.64364C132.58 9.16605 131.711 8.92726 130.394 8.92726H129.324V40.3655Z" fill="#EE454A"/>
<path d="M158.848 49.3754C154.988 49.3754 152.034 48.209 149.985 45.8762C147.955 43.525 146.94 40.1359 146.94 35.709V12.6745C146.94 8.52314 147.946 5.37289 149.958 3.22373C151.988 1.07458 154.952 0 158.848 0C162.744 0 165.699 1.07458 167.711 3.22373C169.741 5.37289 170.757 8.52314 170.757 12.6745V35.709C170.757 40.1359 169.732 43.525 167.684 45.8762C165.653 48.209 162.708 49.3754 158.848 49.3754ZM158.93 40.4482C160.394 40.4482 161.126 39.0246 161.126 36.1774V12.5092C161.126 10.1212 160.412 8.92726 158.985 8.92726C157.376 8.92726 156.571 10.1488 156.571 12.5918V36.2325C156.571 37.7388 156.754 38.8225 157.119 39.4838C157.485 40.1267 158.089 40.4482 158.93 40.4482Z" fill="#EE454A"/>
<path d="M174.653 48.9346V0.440852H189.47C191.94 0.440852 193.806 1.01029 195.068 2.14915C196.33 3.26965 197.171 4.84937 197.592 6.88832C198.031 8.90889 198.251 11.2877 198.251 14.0246C198.251 16.6697 197.912 18.7821 197.235 20.3619C196.577 21.9416 195.324 23.0345 193.476 23.6407C194.995 23.953 196.056 24.7153 196.659 25.9276C197.281 27.1216 197.592 28.6738 197.592 30.5841V48.9346H188.071V29.9504C188.071 28.536 187.778 27.6635 187.193 27.3328C186.626 26.9838 185.702 26.8093 184.421 26.8093V48.9346H174.653ZM184.476 18.4056H186.809C188.144 18.4056 188.812 16.9453 188.812 14.0246C188.812 12.1326 188.665 10.8927 188.373 10.3049C188.08 9.71712 187.531 9.42321 186.726 9.42321H184.476V18.4056Z" fill="#EE454A"/>
<path d="M200.117 48.9346L204.781 0.440852H221.162L225.745 48.9346H216.607L215.921 41.1095H210.104L209.501 48.9346H200.117ZM210.79 33.367H215.181L213.068 8.70683H212.629L210.79 33.367Z" fill="#EE454A"/>
<path d="M20.8018 101.049V52.5548H35.619C38.0885 52.5548 39.9544 53.1242 41.2166 54.2631C42.4788 55.3836 43.3202 56.9633 43.741 59.0022C44.18 61.0228 44.3995 63.4016 44.3995 66.1385C44.3995 68.7836 44.0611 70.8961 43.3843 72.4758C42.7257 74.0555 41.4727 75.1484 39.6251 75.7546C41.1434 76.0669 42.2044 76.8292 42.808 78.0415C43.43 79.2355 43.741 80.7877 43.741 82.698V101.049H34.2196V82.0643C34.2196 80.6499 33.9269 79.7774 33.3415 79.4467C32.7745 79.0977 31.8507 78.9232 30.5702 78.9232V101.049H20.8018ZM30.6251 70.5195H32.9574C34.2928 70.5195 34.9604 69.0592 34.9604 66.1385C34.9604 64.2465 34.8141 63.0066 34.5214 62.4188C34.2287 61.831 33.6799 61.5371 32.8751 61.5371H30.6251V70.5195Z" fill="#EE454A"/>
<path d="M58.9422 101.489C56.0154 101.489 53.6831 100.938 51.9453 99.8362C50.2074 98.734 48.9635 97.1451 48.2135 95.0694C47.4635 92.9938 47.0885 90.4956 47.0885 87.575V70.9603C47.0885 67.1213 48.1861 64.219 50.3812 62.2535C52.5764 60.2697 55.5947 59.2778 59.4361 59.2778C67.3386 59.2778 71.2898 63.172 71.2898 70.9603V73.9636C71.2898 77.6007 71.2533 80.0437 71.1801 81.2928H56.9117V89.2833C56.9117 90.018 56.9575 90.7436 57.0489 91.46C57.1404 92.158 57.3416 92.7366 57.6526 93.1958C57.9819 93.655 58.5032 93.8847 59.2166 93.8847C60.241 93.8847 60.8813 93.4438 61.1374 92.5621C61.3935 91.662 61.5215 90.4956 61.5215 89.0628V85.0952H71.2898V87.4372C71.2898 90.5232 70.9057 93.1132 70.1374 95.2072C69.3874 97.2829 68.1069 98.8534 66.2959 99.9188C64.5032 100.966 62.052 101.489 58.9422 101.489ZM56.8569 76.3883H61.5215V70.8226C61.5215 69.3347 61.3386 68.2693 60.9727 67.6264C60.6069 66.9651 60.0581 66.6345 59.3264 66.6345C58.5398 66.6345 57.927 66.9468 57.488 67.5713C57.0672 68.1958 56.8569 69.2796 56.8569 70.8226V76.3883Z" fill="#EE454A"/>
<path d="M82.9515 101.489C81.049 101.489 79.5399 101.14 78.424 100.442C77.3082 99.7443 76.4758 98.78 75.9271 97.5492C75.3783 96.3185 75.0124 94.8766 74.8295 93.2234C74.6649 91.5702 74.5825 89.7976 74.5825 87.9056V69.9409C74.5825 66.7631 75.1405 64.1914 76.2563 62.226C77.3905 60.2605 79.3021 59.2778 81.9911 59.2778C83.985 59.2778 85.5125 59.7094 86.5734 60.5728C87.6527 61.4177 88.485 62.6025 89.0704 64.1271V52.5548H99.0582V101.049H89.0704V96.6675C88.5216 98.1554 87.7899 99.331 86.8753 100.194C85.9789 101.058 84.671 101.489 82.9515 101.489ZM86.7106 93.7744C87.6436 93.7744 88.2655 93.3979 88.5765 92.6448C88.9058 91.8916 89.0704 90.5415 89.0704 88.5944V71.2083C89.0704 70.2348 88.9241 69.2796 88.6314 68.3428C88.357 67.3876 87.735 66.91 86.7655 66.91C85.7045 66.91 85.0368 67.3601 84.7625 68.2601C84.4881 69.1602 84.3509 70.1429 84.3509 71.2083V88.5944C84.3509 92.0478 85.1375 93.7744 86.7106 93.7744Z" fill="#EE454A"/>
<path d="M116.18 101.049V52.5548H129.461C132.936 52.5548 135.552 53.5283 137.308 55.4754C139.064 57.4041 139.943 60.2329 139.943 63.9618V86.6657C139.943 91.2579 139.138 94.8031 137.528 97.3013C135.936 99.7994 133.138 101.049 129.132 101.049H116.18ZM125.894 92.4794H127.567C129.342 92.4794 130.229 91.6161 130.229 89.8894V64.8711C130.229 63.2546 130.01 62.2168 129.571 61.7576C129.15 61.28 128.281 61.0412 126.964 61.0412H125.894V92.4794Z" fill="#EE454A"/>
<path d="M155.254 101.489C152.327 101.489 149.994 100.938 148.257 99.8362C146.519 98.734 145.275 97.1451 144.525 95.0694C143.775 92.9938 143.4 90.4956 143.4 87.575V70.9603C143.4 67.1213 144.497 64.219 146.693 62.2535C148.888 60.2697 151.906 59.2778 155.747 59.2778C163.65 59.2778 167.601 63.172 167.601 70.9603V73.9636C167.601 77.6007 167.565 80.0437 167.491 81.2928H153.223V89.2833C153.223 90.018 153.269 90.7436 153.36 91.46C153.452 92.158 153.653 92.7366 153.964 93.1958C154.293 93.655 154.815 93.8847 155.528 93.8847C156.552 93.8847 157.193 93.4438 157.449 92.5621C157.705 91.662 157.833 90.4956 157.833 89.0628V85.0952H167.601V87.4372C167.601 90.5232 167.217 93.1132 166.449 95.2072C165.699 97.2829 164.418 98.8534 162.607 99.9188C160.815 100.966 158.363 101.489 155.254 101.489ZM153.168 76.3883H157.833V70.8226C157.833 69.3347 157.65 68.2693 157.284 67.6264C156.918 66.9651 156.369 66.6345 155.638 66.6345C154.851 66.6345 154.238 66.9468 153.799 67.5713C153.379 68.1958 153.168 69.2796 153.168 70.8226V76.3883Z" fill="#EE454A"/>
<path d="M176.409 101.049L169.796 59.7186H179.647L182.007 87.327L184.668 59.7186H194.492L187.769 101.049H176.409Z" fill="#EE454A"/>
<path d="M208.348 101.489C200.226 101.489 196.165 97.3564 196.165 89.0904V85.8115H206.043V90.6609C206.043 91.5977 206.226 92.3325 206.592 92.8652C206.958 93.3979 207.543 93.6642 208.348 93.6642C209.775 93.6642 210.489 92.5896 210.489 90.4405C210.489 88.6403 210.114 87.2994 209.364 86.4177C208.614 85.5176 207.699 84.6543 206.62 83.8277L201.379 79.7774C199.732 78.4916 198.479 77.1323 197.62 75.6995C196.76 74.2667 196.33 72.2737 196.33 69.7204C196.33 67.3509 196.888 65.3946 198.004 63.8516C199.138 62.3086 200.629 61.1606 202.476 60.4074C204.342 59.6543 206.354 59.2778 208.513 59.2778C216.489 59.2778 220.476 63.273 220.476 71.2634V72.0349H210.324V70.4644C210.324 69.6378 210.178 68.8387 209.885 68.0672C209.61 67.2958 209.062 66.91 208.239 66.91C206.848 66.91 206.153 67.6448 206.153 69.1143C206.153 70.6022 206.739 71.7686 207.909 72.6135L214.001 77.0772C215.903 78.4548 217.495 80.0897 218.775 81.9817C220.074 83.8736 220.723 86.3902 220.723 89.5312C220.723 93.4254 219.617 96.392 217.403 98.4309C215.208 100.47 212.19 101.489 208.348 101.489Z" fill="#EE454A"/>
<path d="M18.2553 53.4452V4.95149H27.9139V45.1793H37.8469V53.4452H18.2553Z" fill="#5DEE45"/>
<path d="M52.1152 53.8861C48.2554 53.8861 45.3012 52.7197 43.2524 50.3868C41.2219 48.0356 40.2066 44.6466 40.2066 40.2197V17.1851C40.2066 13.0338 41.2127 9.88352 43.2249 7.73437C45.2554 5.58522 48.2188 4.51064 52.1152 4.51064C56.0116 4.51064 58.9658 5.58522 60.978 7.73437C63.0085 9.88352 64.0238 13.0338 64.0238 17.1851V40.2197C64.0238 44.6466 62.9994 48.0356 60.9506 50.3868C58.9201 52.7197 55.975 53.8861 52.1152 53.8861ZM52.1975 44.9588C53.6609 44.9588 54.3927 43.5352 54.3927 40.6881V17.0198C54.3927 14.6319 53.6792 13.4379 52.2524 13.4379C50.6426 13.4379 49.8378 14.6594 49.8378 17.1025V40.7432C49.8378 42.2494 50.0207 43.3332 50.3865 43.9945C50.7524 44.6374 51.3561 44.9588 52.1975 44.9588Z" fill="#5DEE45"/>
<path d="M79.1702 53.8861C75.6763 53.8861 72.8592 52.7931 70.7189 50.6072C68.597 48.4213 67.536 45.3629 67.536 41.432V19.0588C67.536 14.3563 68.4598 10.756 70.3073 8.25788C72.1732 5.75972 75.2007 4.51064 79.3897 4.51064C81.6763 4.51064 83.7068 4.93312 85.4812 5.77809C87.2739 6.62306 88.6824 7.89051 89.7068 9.58044C90.7312 11.252 91.2434 13.3644 91.2434 15.9177V24.2939H81.6397V17.13C81.6397 15.6789 81.4568 14.7053 81.0909 14.2094C80.7251 13.6951 80.158 13.4379 79.3897 13.4379C78.4934 13.4379 77.8897 13.7685 77.5787 14.4298C77.2677 15.0727 77.1123 15.9361 77.1123 17.0198V41.2942C77.1123 42.6352 77.3043 43.5812 77.6885 44.1322C78.0909 44.6833 78.658 44.9588 79.3897 44.9588C80.2129 44.9588 80.7891 44.619 81.1184 43.9394C81.4659 43.2597 81.6397 42.378 81.6397 41.2942V32.5599H91.3532V41.7351C91.3532 45.9967 90.283 49.0918 88.1428 51.0205C86.0025 52.9309 83.0117 53.8861 79.1702 53.8861Z" fill="#5DEE45"/>
<path d="M93.2739 53.4452L97.9385 4.95149H114.32L118.902 53.4452H109.765L109.079 45.6201H103.262L102.658 53.4452H93.2739ZM103.948 37.8776H108.338L106.225 13.2175H105.786L103.948 37.8776Z" fill="#5DEE45"/>
<path d="M121.865 53.4452V4.95149H135.146C138.622 4.95149 141.237 5.92504 142.994 7.87214C144.75 9.80086 145.628 12.6297 145.628 16.3585V39.0624C145.628 43.6546 144.823 47.1998 143.213 49.698C141.622 52.1961 138.823 53.4452 134.817 53.4452H121.865ZM131.579 44.8762H133.253C135.027 44.8762 135.914 44.0128 135.914 42.2862V17.2678C135.914 15.6513 135.695 14.6135 135.256 14.1543C134.835 13.6767 133.966 13.4379 132.649 13.4379H131.579V44.8762Z" fill="#5DEE45"/>
<path d="M161.103 53.8861C157.244 53.8861 154.289 52.7197 152.241 50.3868C150.21 48.0356 149.195 44.6466 149.195 40.2197V17.1851C149.195 13.0338 150.201 9.88352 152.213 7.73437C154.244 5.58522 157.207 4.51064 161.103 4.51064C165 4.51064 167.954 5.58522 169.966 7.73437C171.997 9.88352 173.012 13.0338 173.012 17.1851V40.2197C173.012 44.6466 171.988 48.0356 169.939 50.3868C167.908 52.7197 164.963 53.8861 161.103 53.8861ZM161.186 44.9588C162.649 44.9588 163.381 43.5352 163.381 40.6881V17.0198C163.381 14.6319 162.667 13.4379 161.241 13.4379C159.631 13.4379 158.826 14.6594 158.826 17.1025V40.7432C158.826 42.2494 159.009 43.3332 159.375 43.9945C159.741 44.6374 160.344 44.9588 161.186 44.9588Z" fill="#5DEE45"/>
<path d="M176.908 53.4452V4.95149H191.725C194.195 4.95149 196.061 5.52092 197.323 6.65979C198.585 7.78029 199.427 9.36001 199.847 11.399C200.287 13.4195 200.506 15.7983 200.506 18.5352C200.506 21.1804 200.168 23.2928 199.491 24.8725C198.832 26.4522 197.579 27.5452 195.732 28.1513C197.25 28.4636 198.311 29.2259 198.915 30.4383C199.536 31.6322 199.847 33.1844 199.847 35.0948V53.4452H190.326V34.461C190.326 33.0466 190.033 32.1741 189.448 31.8435C188.881 31.4945 187.957 31.32 186.677 31.32V53.4452H176.908ZM186.732 22.9162H189.064C190.399 22.9162 191.067 21.4559 191.067 18.5352C191.067 16.6433 190.921 15.4034 190.628 14.8156C190.335 14.2278 189.786 13.9339 188.982 13.9339H186.732V22.9162Z" fill="#5DEE45"/>
<path d="M202.372 53.4452L207.037 4.95149H223.418L228 53.4452H218.863L218.177 45.6201H212.36L211.756 53.4452H202.372ZM213.046 37.8776H217.436L215.323 13.2175H214.884L213.046 37.8776Z" fill="#5DEE45"/>
<path d="M23.0572 105.559V57.0654H37.8743C40.3438 57.0654 42.2097 57.6348 43.4719 58.7737C44.7341 59.8942 45.5755 61.4739 45.9963 63.5129C46.4353 65.5334 46.6548 67.9122 46.6548 70.6492C46.6548 73.2943 46.3164 75.4067 45.6396 76.9864C44.981 78.5661 43.728 79.6591 41.8804 80.2652C43.3987 80.5775 44.4597 81.3398 45.0633 82.5522C45.6853 83.7461 45.9963 85.2983 45.9963 87.2087V105.559H36.4749V86.5749C36.4749 85.1605 36.1822 84.288 35.5968 83.9574C35.0298 83.6084 34.106 83.4339 32.8255 83.4339V105.559H23.0572ZM32.8804 75.0301H35.2127C36.5481 75.0301 37.2158 73.5698 37.2158 70.6492C37.2158 68.7572 37.0694 67.5173 36.7767 66.9295C36.484 66.3417 35.9353 66.0478 35.1304 66.0478H32.8804V75.0301Z" fill="#5DEE45"/>
<path d="M61.1976 106C58.2707 106 55.9384 105.449 54.2006 104.347C52.4628 103.245 51.2189 101.656 50.4689 99.5801C49.7189 97.5044 49.3438 95.0062 49.3438 92.0856V75.471C49.3438 71.6319 50.4414 68.7296 52.6365 66.7642C54.8317 64.7803 57.85 63.7884 61.6915 63.7884C69.5939 63.7884 73.5452 67.6826 73.5452 75.471V78.4743C73.5452 82.1113 73.5086 84.5544 73.4354 85.8034H59.1671V93.7939C59.1671 94.5286 59.2128 95.2542 59.3043 95.9706C59.3957 96.6686 59.5969 97.2472 59.9079 97.7065C60.2372 98.1657 60.7585 98.3953 61.4719 98.3953C62.4963 98.3953 63.1366 97.9544 63.3927 97.0727C63.6488 96.1727 63.7768 95.0062 63.7768 93.5735V89.6058H73.5452V91.9478C73.5452 95.0338 73.161 97.6238 72.3927 99.7179C71.6427 101.794 70.3622 103.364 68.5512 104.429C66.7586 105.476 64.3073 106 61.1976 106ZM59.1122 80.899H63.7768V75.3332C63.7768 73.8453 63.5939 72.7799 63.2281 72.137C62.8622 71.4758 62.3134 71.1451 61.5817 71.1451C60.7951 71.1451 60.1823 71.4574 59.7433 72.0819C59.3225 72.7065 59.1122 73.7902 59.1122 75.3332V80.899Z" fill="#5DEE45"/>
<path d="M85.2068 106C83.3043 106 81.7952 105.651 80.6793 104.953C79.5635 104.255 78.7312 103.291 78.1824 102.06C77.6336 100.829 77.2677 99.3872 77.0848 97.734C76.9202 96.0808 76.8379 94.3082 76.8379 92.4162V74.4515C76.8379 71.2737 77.3958 68.7021 78.5116 66.7366C79.6458 64.7711 81.5574 63.7884 84.2464 63.7884C86.2403 63.7884 87.7678 64.2201 88.8288 65.0834C89.908 65.9284 90.7404 67.1132 91.3257 68.6378V57.0654H101.314V105.559H91.3257V101.178C90.7769 102.666 90.0452 103.842 89.1306 104.705C88.2342 105.568 86.9263 106 85.2068 106ZM88.966 98.2851C89.8989 98.2851 90.5208 97.9085 90.8318 97.1554C91.1611 96.4023 91.3257 95.0522 91.3257 93.1051V75.719C91.3257 74.7454 91.1794 73.7902 90.8867 72.8534C90.6123 71.8982 89.9903 71.4207 89.0208 71.4207C87.9599 71.4207 87.2922 71.8707 87.0178 72.7708C86.7434 73.6708 86.6062 74.6536 86.6062 75.719V93.1051C86.6062 96.5584 87.3928 98.2851 88.966 98.2851Z" fill="#5DEE45"/>
<path d="M118.436 105.559V57.0654H131.716C135.192 57.0654 137.808 58.039 139.564 59.986C141.32 61.9148 142.198 64.7436 142.198 68.4725V91.1763C142.198 95.7686 141.393 99.3137 139.783 101.812C138.192 104.31 135.393 105.559 131.387 105.559H118.436ZM128.149 96.9901H129.823C131.597 96.9901 132.484 96.1267 132.484 94.4001V69.3817C132.484 67.7653 132.265 66.7274 131.826 66.2682C131.405 65.7906 130.536 65.5518 129.219 65.5518H128.149V96.9901Z" fill="#5DEE45"/>
<path d="M157.509 106C154.582 106 152.25 105.449 150.512 104.347C148.774 103.245 147.53 101.656 146.78 99.5801C146.03 97.5044 145.655 95.0062 145.655 92.0856V75.471C145.655 71.6319 146.753 68.7296 148.948 66.7642C151.143 64.7803 154.161 63.7884 158.003 63.7884C165.905 63.7884 169.857 67.6826 169.857 75.471V78.4743C169.857 82.1113 169.82 84.5544 169.747 85.8034H155.478V93.7939C155.478 94.5286 155.524 95.2542 155.616 95.9706C155.707 96.6686 155.908 97.2472 156.219 97.7065C156.549 98.1657 157.07 98.3953 157.783 98.3953C158.808 98.3953 159.448 97.9544 159.704 97.0727C159.96 96.1727 160.088 95.0062 160.088 93.5735V89.6058H169.857V91.9478C169.857 95.0338 169.472 97.6238 168.704 99.7179C167.954 101.794 166.674 103.364 164.863 104.429C163.07 105.476 160.619 106 157.509 106ZM155.424 80.899H160.088V75.3332C160.088 73.8453 159.905 72.7799 159.539 72.137C159.174 71.4758 158.625 71.1451 157.893 71.1451C157.106 71.1451 156.494 71.4574 156.055 72.0819C155.634 72.7065 155.424 73.7902 155.424 75.3332V80.899Z" fill="#5DEE45"/>
<path d="M178.664 105.559L172.052 64.2292H181.902L184.262 91.8376L186.924 64.2292H196.747L190.024 105.559H178.664Z" fill="#5DEE45"/>
<path d="M210.604 106C202.482 106 198.421 101.867 198.421 93.601V90.3222H208.299V95.1716C208.299 96.1084 208.482 96.8431 208.848 97.3758C209.213 97.9085 209.799 98.1749 210.604 98.1749C212.03 98.1749 212.744 97.1003 212.744 94.9511C212.744 93.151 212.369 91.8101 211.619 90.9284C210.869 90.0283 209.954 89.165 208.875 88.3384L203.634 84.288C201.988 83.0022 200.735 81.6429 199.875 80.2101C199.015 78.7774 198.585 76.7844 198.585 74.2311C198.585 71.8615 199.143 69.9052 200.259 68.3622C201.393 66.8193 202.884 65.6712 204.732 64.9181C206.598 64.165 208.61 63.7884 210.768 63.7884C218.744 63.7884 222.732 67.7836 222.732 75.7741V76.5456H212.579V74.975C212.579 74.1484 212.433 73.3494 212.14 72.5779C211.866 71.8064 211.317 71.4207 210.494 71.4207C209.104 71.4207 208.408 72.1554 208.408 73.6249C208.408 75.1128 208.994 76.2792 210.165 77.1242L216.256 81.5878C218.159 82.9655 219.75 84.6003 221.03 86.4923C222.329 88.3843 222.979 90.9008 222.979 94.0419C222.979 97.9361 221.872 100.903 219.659 102.942C217.463 104.981 214.445 106 210.604 106Z" fill="#5DEE45"/>
<path d="M18.2553 51.1899V2.69617H27.9139V42.9239H37.8469V51.1899H18.2553Z" fill="white"/>
<path d="M52.1152 51.6308C48.2554 51.6308 45.3012 50.4643 43.2524 48.1315C41.2219 45.7803 40.2066 42.3912 40.2066 37.9643V14.9298C40.2066 10.7785 41.2127 7.62821 43.2249 5.47905C45.2554 3.3299 48.2188 2.25532 52.1152 2.25532C56.0116 2.25532 58.9658 3.3299 60.978 5.47905C63.0085 7.62821 64.0238 10.7785 64.0238 14.9298V37.9643C64.0238 42.3912 62.9994 45.7803 60.9506 48.1315C58.9201 50.4643 55.975 51.6308 52.1152 51.6308ZM52.1975 42.7035C53.6609 42.7035 54.3927 41.2799 54.3927 38.4327V14.7645C54.3927 12.3766 53.6792 11.1826 52.2524 11.1826C50.6426 11.1826 49.8378 12.4041 49.8378 14.8472V38.4879C49.8378 39.9941 50.0207 41.0779 50.3865 41.7391C50.7524 42.3821 51.3561 42.7035 52.1975 42.7035Z" fill="white"/>
<path d="M79.1702 51.6308C75.6763 51.6308 72.8592 50.5378 70.7189 48.3519C68.597 46.166 67.536 43.1076 67.536 39.1767V16.8034C67.536 12.101 68.4598 8.50072 70.3073 6.00256C72.1732 3.5044 75.2007 2.25532 79.3897 2.25532C81.6763 2.25532 83.7068 2.6778 85.4812 3.52277C87.2739 4.36774 88.6824 5.63519 89.7068 7.32512C90.7312 8.99668 91.2434 11.1091 91.2434 13.6624V22.0386H81.6397V14.8747C81.6397 13.4236 81.4568 12.45 81.0909 11.9541C80.7251 11.4397 80.158 11.1826 79.3897 11.1826C78.4934 11.1826 77.8897 11.5132 77.5787 12.1745C77.2677 12.8174 77.1123 13.6807 77.1123 14.7645V39.0389C77.1123 40.3798 77.3043 41.3258 77.6885 41.8769C78.0909 42.428 78.658 42.7035 79.3897 42.7035C80.2129 42.7035 80.7891 42.3637 81.1184 41.684C81.4659 41.0044 81.6397 40.1227 81.6397 39.0389V30.3045H91.3532V39.4798C91.3532 43.7413 90.283 46.8365 88.1428 48.7652C86.0025 50.6756 83.0117 51.6308 79.1702 51.6308Z" fill="white"/>
<path d="M93.2739 51.1899L97.9385 2.69617H114.32L118.902 51.1899H109.765L109.079 43.3648H103.262L102.658 51.1899H93.2739ZM103.948 35.6223H108.338L106.225 10.9621H105.786L103.948 35.6223Z" fill="white"/>
<path d="M121.865 51.1899V2.69617H135.146C138.622 2.69617 141.237 3.66972 142.994 5.61682C144.75 7.54555 145.628 10.3743 145.628 14.1032V36.8071C145.628 41.3993 144.823 44.9445 143.213 47.4427C141.622 49.9408 138.823 51.1899 134.817 51.1899H121.865ZM131.579 42.6208H133.253C135.027 42.6208 135.914 41.7575 135.914 40.0308V15.0125C135.914 13.396 135.695 12.3582 135.256 11.899C134.835 11.4214 133.966 11.1826 132.649 11.1826H131.579V42.6208Z" fill="white"/>
<path d="M161.103 51.6308C157.244 51.6308 154.289 50.4643 152.241 48.1315C150.21 45.7803 149.195 42.3912 149.195 37.9643V14.9298C149.195 10.7785 150.201 7.62821 152.213 5.47905C154.244 3.3299 157.207 2.25532 161.103 2.25532C165 2.25532 167.954 3.3299 169.966 5.47905C171.997 7.62821 173.012 10.7785 173.012 14.9298V37.9643C173.012 42.3912 171.988 45.7803 169.939 48.1315C167.908 50.4643 164.963 51.6308 161.103 51.6308ZM161.186 42.7035C162.649 42.7035 163.381 41.2799 163.381 38.4327V14.7645C163.381 12.3766 162.667 11.1826 161.241 11.1826C159.631 11.1826 158.826 12.4041 158.826 14.8472V38.4879C158.826 39.9941 159.009 41.0779 159.375 41.7391C159.741 42.3821 160.344 42.7035 161.186 42.7035Z" fill="white"/>
<path d="M176.908 51.1899V2.69617H191.725C194.195 2.69617 196.061 3.26561 197.323 4.40447C198.585 5.52497 199.427 7.10469 199.847 9.14363C200.287 11.1642 200.506 13.543 200.506 16.2799C200.506 18.925 200.168 21.0375 199.491 22.6172C198.832 24.1969 197.579 25.2898 195.732 25.896C197.25 26.2083 198.311 26.9706 198.915 28.1829C199.536 29.3769 199.847 30.9291 199.847 32.8394V51.1899H190.326V32.2057C190.326 30.7913 190.033 29.9188 189.448 29.5882C188.881 29.2391 187.957 29.0646 186.677 29.0646V51.1899H176.908ZM186.732 20.6609H189.064C190.399 20.6609 191.067 19.2006 191.067 16.2799C191.067 14.3879 190.921 13.148 190.628 12.5602C190.335 11.9724 189.786 11.6785 188.982 11.6785H186.732V20.6609Z" fill="white"/>
<path d="M202.372 51.1899L207.037 2.69617H223.418L228 51.1899H218.863L218.177 43.3648H212.36L211.756 51.1899H202.372ZM213.046 35.6223H217.436L215.323 10.9621H214.884L213.046 35.6223Z" fill="white"/>
<path d="M23.0572 103.304V54.8101H37.8743C40.3438 54.8101 42.2097 55.3795 43.4719 56.5184C44.7341 57.6389 45.5755 59.2186 45.9963 61.2575C46.4353 63.2781 46.6548 65.6569 46.6548 68.3938C46.6548 71.039 46.3164 73.1514 45.6396 74.7311C44.981 76.3108 43.728 77.4038 41.8804 78.0099C43.3987 78.3222 44.4597 79.0845 45.0633 80.2968C45.6853 81.4908 45.9963 83.043 45.9963 84.9533V103.304H36.4749V84.3196C36.4749 82.9052 36.1822 82.0327 35.5968 81.7021C35.0298 81.3531 34.106 81.1786 32.8255 81.1786V103.304H23.0572ZM32.8804 72.7748H35.2127C36.5481 72.7748 37.2158 71.3145 37.2158 68.3938C37.2158 66.5019 37.0694 65.262 36.7767 64.6742C36.484 64.0863 35.9353 63.7925 35.1304 63.7925H32.8804V72.7748Z" fill="white"/>
<path d="M61.1976 103.745C58.2707 103.745 55.9384 103.194 54.2006 102.091C52.4628 100.989 51.2189 99.4004 50.4689 97.3248C49.7189 95.2491 49.3438 92.7509 49.3438 89.8303V73.2157C49.3438 69.3766 50.4414 66.4743 52.6365 64.5088C54.8317 62.525 57.85 61.5331 61.6915 61.5331C69.5939 61.5331 73.5452 65.4273 73.5452 73.2157V76.219C73.5452 79.856 73.5086 82.299 73.4354 83.5481H59.1671V91.5386C59.1671 92.2733 59.2128 92.9989 59.3043 93.7153C59.3957 94.4133 59.5969 94.9919 59.9079 95.4511C60.2372 95.9104 60.7585 96.14 61.4719 96.14C62.4963 96.14 63.1366 95.6991 63.3927 94.8174C63.6488 93.9173 63.7768 92.7509 63.7768 91.3181V87.3505H73.5452V89.6925C73.5452 92.7785 73.161 95.3685 72.3927 97.4625C71.6427 99.5382 70.3622 101.109 68.5512 102.174C66.7586 103.221 64.3073 103.745 61.1976 103.745ZM59.1122 78.6437H63.7768V73.0779C63.7768 71.59 63.5939 70.5246 63.2281 69.8817C62.8622 69.2204 62.3134 68.8898 61.5817 68.8898C60.7951 68.8898 60.1823 69.2021 59.7433 69.8266C59.3225 70.4512 59.1122 71.5349 59.1122 73.0779V78.6437Z" fill="white"/>
<path d="M85.2068 103.745C83.3043 103.745 81.7952 103.396 80.6793 102.698C79.5635 102 78.7312 101.035 78.1824 99.8046C77.6336 98.5738 77.2677 97.1319 77.0848 95.4787C76.9202 93.8255 76.8379 92.0529 76.8379 90.1609V72.1962C76.8379 69.0184 77.3958 66.4467 78.5116 64.4813C79.6458 62.5158 81.5574 61.5331 84.2464 61.5331C86.2403 61.5331 87.7678 61.9647 88.8288 62.8281C89.908 63.673 90.7404 64.8578 91.3257 66.3825V54.8101H101.314V103.304H91.3257V98.9229C90.7769 100.411 90.0452 101.586 89.1306 102.45C88.2342 103.313 86.9263 103.745 85.2068 103.745ZM88.966 96.0298C89.8989 96.0298 90.5208 95.6532 90.8318 94.9001C91.1611 94.147 91.3257 92.7968 91.3257 90.8497V73.4636C91.3257 72.4901 91.1794 71.5349 90.8867 70.5981C90.6123 69.6429 89.9903 69.1653 89.0208 69.1653C87.9599 69.1653 87.2922 69.6154 87.0178 70.5154C86.7434 71.4155 86.6062 72.3982 86.6062 73.4636V90.8497C86.6062 94.3031 87.3928 96.0298 88.966 96.0298Z" fill="white"/>
<path d="M118.436 103.304V54.8101H131.716C135.192 54.8101 137.808 55.7836 139.564 57.7307C141.32 59.6595 142.198 62.4883 142.198 66.2171V88.921C142.198 93.5132 141.393 97.0584 139.783 99.5566C138.192 102.055 135.393 103.304 131.387 103.304H118.436ZM128.149 94.7348H129.823C131.597 94.7348 132.484 93.8714 132.484 92.1448V67.1264C132.484 65.5099 132.265 64.4721 131.826 64.0129C131.405 63.5353 130.536 63.2965 129.219 63.2965H128.149V94.7348Z" fill="white"/>
<path d="M157.509 103.745C154.582 103.745 152.25 103.194 150.512 102.091C148.774 100.989 147.53 99.4004 146.78 97.3248C146.03 95.2491 145.655 92.7509 145.655 89.8303V73.2157C145.655 69.3766 146.753 66.4743 148.948 64.5088C151.143 62.525 154.161 61.5331 158.003 61.5331C165.905 61.5331 169.857 65.4273 169.857 73.2157V76.219C169.857 79.856 169.82 82.299 169.747 83.5481H155.478V91.5386C155.478 92.2733 155.524 92.9989 155.616 93.7153C155.707 94.4133 155.908 94.9919 156.219 95.4511C156.549 95.9104 157.07 96.14 157.783 96.14C158.808 96.14 159.448 95.6991 159.704 94.8174C159.96 93.9173 160.088 92.7509 160.088 91.3181V87.3505H169.857V89.6925C169.857 92.7785 169.472 95.3685 168.704 97.4625C167.954 99.5382 166.674 101.109 164.863 102.174C163.07 103.221 160.619 103.745 157.509 103.745ZM155.424 78.6437H160.088V73.0779C160.088 71.59 159.905 70.5246 159.539 69.8817C159.174 69.2204 158.625 68.8898 157.893 68.8898C157.106 68.8898 156.494 69.2021 156.055 69.8266C155.634 70.4512 155.424 71.5349 155.424 73.0779V78.6437Z" fill="white"/>
<path d="M178.664 103.304L172.052 61.9739H181.902L184.262 89.5823L186.924 61.9739H196.747L190.024 103.304H178.664Z" fill="white"/>
<path d="M210.604 103.745C202.482 103.745 198.421 99.6117 198.421 91.3457V88.0669H208.299V92.9162C208.299 93.8531 208.482 94.5878 208.848 95.1205C209.213 95.6532 209.799 95.9196 210.604 95.9196C212.03 95.9196 212.744 94.845 212.744 92.6958C212.744 90.8957 212.369 89.5547 211.619 88.673C210.869 87.773 209.954 86.9096 208.875 86.083L203.634 82.0327C201.988 80.7469 200.735 79.3876 199.875 77.9548C199.015 76.5221 198.585 74.529 198.585 71.9758C198.585 69.6062 199.143 67.6499 200.259 66.1069C201.393 64.5639 202.884 63.4159 204.732 62.6628C206.598 61.9096 208.61 61.5331 210.768 61.5331C218.744 61.5331 222.732 65.5283 222.732 73.5187V74.2902H212.579V72.7197C212.579 71.8931 212.433 71.0941 212.14 70.3226C211.866 69.5511 211.317 69.1653 210.494 69.1653C209.104 69.1653 208.408 69.9001 208.408 71.3696C208.408 72.8575 208.994 74.0239 210.165 74.8689L216.256 79.3325C218.159 80.7102 219.75 82.345 221.03 84.237C222.329 86.129 222.979 88.6455 222.979 91.7866C222.979 95.6808 221.872 98.6473 219.659 100.686C217.463 102.725 214.445 103.745 210.604 103.745Z" fill="white"/>
</svg>
