<svg width="28" height="32" viewBox="0 0 28 32" fill="none" xmlns="http://www.w3.org/2000/svg">
<path d="M2 7.99996L6 2.66663H22L26 7.99996M2 7.99996V26.6666C2 27.3739 2.28095 28.0521 2.78105 28.5522C3.28115 29.0523 3.95942 29.3333 4.66667 29.3333H23.3333C24.0406 29.3333 24.7189 29.0523 25.219 28.5522C25.719 28.0521 26 27.3739 26 26.6666V7.99996M2 7.99996H26M19.3333 13.3333C19.3333 14.7478 18.7714 16.1043 17.7712 17.1045C16.771 18.1047 15.4145 18.6666 14 18.6666C12.5855 18.6666 11.229 18.1047 10.2288 17.1045C9.22857 16.1043 8.66667 14.7478 8.66667 13.3333" stroke="white" stroke-width="4" stroke-linecap="round" stroke-linejoin="round"/>
</svg>
