<svg width="35" height="31" viewBox="0 0 35 31" fill="none" xmlns="http://www.w3.org/2000/svg">
<path d="M17.5 8.20833C17.5 6.66124 16.8854 5.17751 15.7914 4.08354C14.6975 2.98958 13.2138 2.375 11.6667 2.375H2.91666V24.25H13.125C14.2853 24.25 15.3981 24.7109 16.2186 25.5314C17.0391 26.3519 17.5 27.4647 17.5 28.625M17.5 8.20833V28.625M17.5 8.20833C17.5 6.66124 18.1146 5.17751 19.2085 4.08354C20.3025 2.98958 21.7862 2.375 23.3333 2.375H32.0833V24.25H21.875C20.7147 24.25 19.6019 24.7109 18.7814 25.5314C17.9609 26.3519 17.5 27.4647 17.5 28.625" stroke="white" stroke-width="4" stroke-linecap="round" stroke-linejoin="round"/>
</svg>
